<svg xmlns="http://www.w3.org/2000/svg" viewBox="0 0 30.62 30.61"><defs><style>.cls-1{fill:#ffffff;}</style></defs><g id="Layer_2" data-name="Layer 2"><g id="Camada_1" data-name="Camada 1"><path class="cls-1" d="M17.3,24.93a2,2,0,0,1-1.25.59C16,24.93,16.3,24.3,17.3,24.93ZM9,21.64c2,0,4.2-.33,5.18,3.44a5.14,5.14,0,0,1-3.34-3c-.31,0-.52.7-.62,1.75a34.79,34.79,0,0,1-4.72-1.47A6.66,6.66,0,0,1,9,21.64Zm15.09-.43c.43,0-.44.87-1.31.66C23.2,21.64,23.64,21.21,24.08,21.21Zm-5-1.32c1.1,0,1.53.87,2.16,1-1,2-3.33,2.23-5.08,2.94a2.45,2.45,0,0,0-.59-1.08C16.92,21.27,18,19.89,19.05,19.89ZM3.89,19.47l3.35.62c-1,.66-2.31.66-3.28,1.12a2.16,2.16,0,0,0-1.07-.55ZM23.2,19.2h1.51a2.2,2.2,0,0,0-.48,1.51,11.52,11.52,0,0,1-2.55-.07c.48-.68,1.8-.68,2.18-.92A2.3,2.3,0,0,0,23.2,19.2ZM9.65,19c1.09,0,3.18,1.79,4.58,2.93-3.74-.41-4.2-1.8-6.44-.77C7.67,20.55,8.55,19,9.65,19Zm18.9-.41c.11.63-.82,1.22-1.76,2.13H25.26a1.94,1.94,0,0,1-.46-1.22A7.31,7.31,0,0,0,28.55,18.61Zm-17.37.09h3v1.62C13,19.39,12.17,19.43,11.18,18.7ZM6.11,17.28c1,.45,1.78,1.31,2.66,1.53a6.81,6.81,0,0,1-4.16-.47A3.7,3.7,0,0,0,6.11,17.28ZM28,16.83c1.45.39-1.08,1.19-2.29,2.14A3.86,3.86,0,0,1,28,16.83Zm-.88-1.31a5.23,5.23,0,0,0,.91.66,6.48,6.48,0,0,0-1.43.62A1.75,1.75,0,0,1,27.11,15.52Zm-2.19,0A2.22,2.22,0,0,0,26,16a5.68,5.68,0,0,1-.92,2.53c-.55,0-.33-.4-1.43-.4s-1.68,1.3-3.11,1.74l-1-1.13c1-.58,2.18-1.92,3.27-1.92s1,.5,1.31.87l.66-.68c-.38-.26-.66-.2-1.29-.33C23.92,16,24.35,16,24.92,15.52Zm-14.17.16c1.09-.16,2.52.75,3.92,1.83C13,18.4,12.1,16.69,10.75,15.68Zm12.45-1c.43,0-.44,1.31-1.08,1.18C22.61,15.15,22.76,14.65,23.2,14.65Zm-2.48-.39c.08.61.3.83.94,1-1.59,1.66-1.3,1.72-1.3,2a5.32,5.32,0,0,0-4.48,3.5V17.84C17.93,16.06,16.93,14.92,20.72,14.26ZM28.23,14c-1,.62-1.91.63-3.93.92C25.38,14.38,26.94,12.93,28.23,14Zm-17-.55a3.22,3.22,0,0,1,3,1A3.05,3.05,0,0,1,11.2,13.46ZM1.16,13c.54,0,3.06.08,3.41,2H2.49C2.43,14.43,1.58,14.08,1.16,13Zm17.13-.46h2.05c-.89,1.57-2.71,3-5.16,4.23C16.45,14.37,17.17,14,18.29,12.53ZM6,12.53h.77A.39.39,0,1,1,6,12.53Zm18-.94a2.16,2.16,0,0,0,1,.5v2.05c-.69-.42-1,.07-4.67,0C21.48,12,23.22,12.36,24,11.59Zm-14,0c.68.48,1.18.63,1,1.71C10.36,12.83,9.86,12.24,10,11.61Zm3.4-.9v2.6c-.41-.48-.85-.48-1.35-1.07A20.18,20.18,0,0,0,13.4,10.71Zm-6.52,0a6.78,6.78,0,0,1,3.4,2.88C9.07,13.88,7.25,12.21,6.88,10.76Zm19.6.16L25.29,12C25.18,11.37,26,10.34,26.48,10.92ZM2,10.4a10.48,10.48,0,0,1,3.42.38,2.37,2.37,0,0,0,.49,1.54c-.64.14-.92.07-1.3.34C7.37,14.8,8.48,14.26,12,18c0,0,0,.62-1.09.62C7.4,18.58,3.63,12.49,2,10.4Zm21.14-.56,2,.69a5.71,5.71,0,0,1-3,.5ZM19.64,9h2a22.3,22.3,0,0,1,0,2.49,38,38,0,0,1-4.74.86C17.8,11.21,18.28,9.87,19.64,9Zm-2.1-.92a2.22,2.22,0,0,0,1.06.57,31.71,31.71,0,0,1-3.85,4.22V11.3A3.46,3.46,0,0,1,17.54,8.08ZM9.8,7.28c.06.59.43,1.18.06,1.47C10.23,9,11,9,11.94,9a1.81,1.81,0,0,0,.52,1,3.43,3.43,0,0,1-1,2,2.07,2.07,0,0,0-1.07-.5c-.06-.6.4-1.37.12-2.13-.25.37-.84,1.32-1.45,1.24C9,10.63,9.21,7.21,9.8,7.28Zm13.92-.49a3,3,0,0,0,.56,1.59c-.64.14-.92.51-1.48,1a2.6,2.6,0,0,0-1.11-.56ZM19.8,6.41V8.52C19.17,7.57,18.8,6.23,19.8,6.41ZM3.08,4.59c.59.5,1.09.66,1,1.27L1.55,5.21A2.87,2.87,0,0,0,3.08,4.59ZM20.3,3.77a1.62,1.62,0,0,1-.68,1.68C19.49,4.8,19.71,3.71,20.3,3.77ZM5.42,6a1.81,1.81,0,0,0,1.16-.5,18.13,18.13,0,0,1,1.9,1.45V8.5c-1.12-.43-2-1.3-3-1.8C6.33,7.76,7.18,9,8.54,10.59,5.27,10.61,5,5.86,4.21,4.27,5.27,4.15,5.49,5.24,5.42,6Zm7.19-2.63V5.88l-1-1S11.84,3.27,12.61,3.33Zm3.31-.87a2.91,2.91,0,0,1-1.7,2c.21.33.67,2.47-.75,3.18a36.05,36.05,0,0,1-.05-4.28A16.43,16.43,0,0,0,15.92,2.46ZM0,9.51v-1c.8.18,1.91.83,2.86.68A11.52,11.52,0,0,1,0,6.48V4.72c1.27,1,2.76,1.73,4.18,2.68-.76.26-2-.2-3.06,0,1.91.68,2.79,2,4.37,2.19L.94,9.83A5,5,0,0,0,0,9.51Zm0,8.14V15.53a30.61,30.61,0,0,1,5.93.7c-1.8,1.65-1.31,1.92-3.5,1.92A3.31,3.31,0,0,1,0,17.65Zm0,3V18.77a13.79,13.79,0,0,1,1.77-.19,6.71,6.71,0,0,1,2.41.24l-.71.65-1.83-.4a1.66,1.66,0,0,0,.8,1.44A8.68,8.68,0,0,1,0,20.63Zm0,1.85V21.31H3.67V22.9c-1,.05-2.33.49-3,.28.51-.18,1.64-.63,1.8-1.61-.27.07-.93.95-2,.95A3.15,3.15,0,0,1,0,22.48Zm14.28,8.13H0V24.75A22.5,22.5,0,0,1,4.83,23c1.1,0,3,.86,4.17,1.15a4.2,4.2,0,0,1-1.54.83c2.08.22,5.2.57,6.82,1.42Zm16.34-5.5V30.6H15.77c0-3,1.21-5.91,3.79-6,.41,2.71,5.78-.31,7,2.59H30a5.75,5.75,0,0,0-2.61-1.47l.69-.64a5,5,0,0,0,2.31.81A2.15,2.15,0,0,1,30.62,25.11Zm0-2.84v1.8a4.09,4.09,0,0,0-1.25,1.08c-.27-.75.12-1.37.59-2.09-1.57.34-2.59,2.52-3.68,2.52s-.69-.33-.69-.33c0-.32,1.35.33,1.35-.76s-.07-.72.4-1.43c-1.57.34-3,2.09-4.13,2.09s-2.18-.44-2.88-.36V23.7c.84-.81.91-1.18,2-1.18s1.16.37,1.79.87c.6-1,1.71-2.18,2.81-2.18A16.78,16.78,0,0,1,30.62,22.27Zm0-1.82V21c-.58.21-1.15.31-1.79.59,0,0-.59-.65-.52-1.18Zm0-7.23v1.07a3.93,3.93,0,0,0-1.17,1.63,10.58,10.58,0,0,1-2.07-.54A10.21,10.21,0,0,1,30.62,13.22Zm0-2v.63a2.52,2.52,0,0,1-1.73,1c-.87,0-1.75-.43-3.27-.62,1.45-.68,3.22-.25,4.8-.49a2.69,2.69,0,0,0-.65-.41A1.76,1.76,0,0,1,30.62,11.26Zm0-3V10.5a3.9,3.9,0,0,1-2.17.65c-1.09,0,.22-.87-.87-.87s-.65-.25-.65-.25a1.78,1.78,0,0,1,1.53-.62c.93,0,1,.29,1,.38C29.53,9,30,8.66,30.62,8.23ZM15.77,0H30.62V7.76h-1c-.9,2.05-1,0-3,2.09V8.37c.24-.34,1.11-.78,1.59-1.45a1.11,1.11,0,0,1-1-1c-.68,1-1.36,2.18-2.28,2.24v-2A13.23,13.23,0,0,1,29.1,1.69,1.39,1.39,0,0,1,28,.87,7.7,7.7,0,0,1,27.14,2a4.71,4.71,0,0,1-.49-.87,16,16,0,0,1-1.28,3.05C25.1,3.77,25,2.83,24.31,3a2.39,2.39,0,0,1-.63,3.37L23,5.58c0-1.22.45-2.1.28-3.19-.68,1-.92,1.74-1.51,1.81-.07.59.81,1,.81,2.12S22.11,8.07,21,8.07s-.66-.25-.66-.25c.38-.25-.43-.62-.43-1.71s.81-2,1.53-3.06c-.59.28-.66.87-.66-.22S22.08,1.39,22.43.24a33.45,33.45,0,0,0-3.64,5.22c-.25-.37-.84-1.31-1.47-1.21.43,1.09.84,1.21.84,2.3s.06.72-.29,1.1C16,7.42,14.66,9.12,14.8,9.84c-.21-.39-.21-1.27-.58-1.57,1.39-2.1,1-4.47,4.36-5.58-.45-1.06.45-1.4.35-2-1.09.42-1.09,1.3-1.8,1.73-.31-.77.15-1.54,0-2.18-.68.48-1,1.3-1.27,1.34A4.88,4.88,0,0,1,15.77,0ZM12.93,0h1.54c.26.84.34,1.51.65,1.74L14,2.84c-.28-.37-.44-.87-.72-.81C13.36.16,12.93.76,12.93,0ZM0,0H11.92a14.07,14.07,0,0,0,1.45,2.6,1,1,0,0,1-.71.25c-.39,0-.67-.38-1.31-.87A3.61,3.61,0,0,1,11,3.28c-.28-.37-.44-.87-1.07-.75l.85,1a1.49,1.49,0,0,1-1,.24A23.3,23.3,0,0,0,7.37,1.12c-.13.62.37,1.34.09,1.72-.29-.38-1.31-1.31-1.95-1.2,1.94,2.8,6.83,3.68,8.29,7l-.68.72c-.9-.68-2.17-1.34-2.62-3.06-.2.66.68.87-.42.87s-.72-2.12-1.88-3c.37,1.15.41,1.77.13,2.15A20.17,20.17,0,0,1,5.39,2.89H3.8c-.06.6-.87.88-1.12,1.26A10.91,10.91,0,0,1,1.93,2C1.34,2,1.62,3.21,2,3.48l-.73.76H0Z"/></g></g></svg>